PathFileType	4	(X/Y/Z)	D:\Share\Shared_Data\Ergonomics\Sit To Stand Pertubation\S3\S3 Cal 01.trc
DataRate	CameraRate	NumFrames	NumMarkers	Units	OrigDataRate	OrigDataStartFrame	OrigNumFrames	
100	100	6	21	mm	100	1	204
Frame#	Time	R_ASIS			R_Pelvis			V_Sacral			L_Pelvis			L_ASIS			Clavical			R_Acromium			L_Acromium			Sternum			Torso			R_Thigh_Med			R_Thigh_Lat			R_Thigh			R_Shank_Med			R_Shank_Lat			R_Shank			R_Heel			R_Toe			RAJC			RHJC			RKJC			
		X1	Y1	Z1	X2	Y2	Z2	X3	Y3	Z3	X4	Y4	Z4	X5	Y5	Z5	X6	Y6	Z6	X7	Y7	Z7	X8	Y8	Z8	X9	Y9	Z9	X10	Y10	Z10	X11	Y11	Z11	X12	Y12	Z12	X13	Y13	Z13	X14	Y14	Z14	X15	Y15	Z15	X16	Y16	Z16	X17	Y17	Z17	X18	Y18	Z18	X19	Y19	Z19	X20	Y20	Z20	X21	Y21	Z21	

1	0	305.77362	941.15106	127.59367	195.63004	954.73993	179.97745	91.206352	991.12219	-12.402837	201.57133	963.4845	-207.18333	303.72397	931.45001	-156.54912	267.52441	1376.0096	-14.297141	186.4567	1426.3621	150.6718	207.4402	1426.0935	-168.88785	300.65176	1303.0217	-9.2678137	272.84027	1361.3479	-81.319992	256.78519	469.18356	31.954241	225.8253	457.31821	131.39371	312.56802	662.70837	89.123871	181.29512	104.84882	72.872803	166.04034	98.678978	154.13988	165.81458	284.77084	158.47192	110.14428	56.247074	114.80122	327.96545	55.982128	103.83862	173.66773	101.763899	113.5063415	220.7556157	862.222789	89.84301971	241.305245	463.250885	81.6739755
2	0.01	305.71332	941.14166	127.56638	195.57983	954.73755	179.89932	91.231308	991.12817	-12.517641	201.69165	963.48926	-207.26038	303.80576	931.44031	-156.56625	267.54318	1375.9658	-14.372614	186.48499	1426.3577	150.61676	207.48923	1426.0712	-168.96487	300.64575	1302.9862	-9.3417358	272.86606	1361.3195	-81.383423	256.84012	469.1871	31.936146	225.83348	457.30484	131.37726	312.73358	662.41193	89.572121	181.28548	104.87918	72.91761	166.10295	98.662827	154.20769	165.81601	284.77377	158.45575	110.14513	56.255817	114.80879	327.9631	55.97979	103.85005	173.694215	101.7710035	113.56265	220.711091	862.2229908	89.77501469	241.3368	463.24597	81.656703
3	0.02	305.69452	941.13678	127.52922	195.5157	954.72717	179.8277	91.265221	991.10706	-12.61769	201.8093	963.48035	-207.32915	303.89127	931.43146	-156.5755	267.57083	1375.9551	-14.424509	186.47894	1426.3488	150.534	207.55663	1426.0585	-169.03032	300.68515	1302.9749	-9.361661	272.89645	1361.3011	-81.444572	256.91006	469.19495	31.941696	225.83916	457.31763	131.35713	312.73203	662.40674	89.559349	181.29773	104.86594	72.908997	166.76532	98.375526	155.99361	165.814	284.7764	158.44919	110.1621	56.237156	114.78712	327.96381	55.973061	103.84994	174.031525	101.620733	114.4513035	220.7141842	862.220373	89.71276449	241.37461	463.25629	81.649413
4	0.03	305.66113	941.13849	127.49325	195.51674	954.74133	179.77216	91.287941	991.10651	-12.710727	201.94604	963.48755	-207.39713	303.94308	931.41266	-156.605	267.59271	1375.9441	-14.467824	186.49037	1426.3597	150.48184	207.61623	1426.0309	-169.09123	300.6944	1302.9484	-9.4036283	272.93301	1361.2749	-81.475197	256.92767	469.1445	31.929743	225.81438	457.29459	131.32468	312.74588	662.40704	89.553658	181.30467	104.85955	72.903305	167.21332	98.106407	156.6915	165.77583	284.7789	158.43575	110.14715	56.247643	114.79968	327.96582	55.975647	103.84645	174.258995	101.4829785	114.7974025	220.6914945	862.2246581	89.65797153	241.371025	463.219545	81.6272115
5	0.04	305.61972	941.14642	127.43905	195.44841	954.74213	179.677	91.313499	991.09949	-12.810691	202.03319	963.50018	-207.51917	304.0195	931.40594	-156.62009	267.629	1375.941	-14.50526	186.50496	1426.3617	150.42422	207.69019	1426.0345	-169.16797	300.71161	1302.9464	-9.4218464	272.96985	1361.2749	-81.53228	257.02963	469.16144	31.925957	225.80522	457.32611	131.25984	312.74677	662.4433	89.501785	181.26474	104.90394	72.989937	166.79222	98.325256	156.04924	165.73741	284.80499	158.38828	110.16112	56.250618	114.80367	327.96539	55.994385	103.8333	174.02848	101.614598	114.5195885	220.6732773	862.2390994	89.57938452	241.417425	463.243775	81.5928985
6	0.05	305.61871	941.15204	127.41985	195.42569	954.73401	179.58957	91.336365	991.08685	-12.892873	202.11143	963.50623	-207.62453	304.0975	931.3858	-156.64874	267.65088	1375.9589	-14.519369	186.50601	1426.3589	150.36548	207.75235	1426.0189	-169.26044	300.7421	1302.9348	-9.44837	273.01602	1361.2544	-81.578003	257.04816	469.11313	31.875099	225.76288	457.31433	131.20726	312.75226	662.47375	89.466095	181.25232	104.93801	73.050903	166.85172	98.326744	156.03732	165.70374	284.81042	158.33823	110.18581	56.244873	114.8471	327.96573	56.00676	103.81615	174.05202	101.632377	114.5441115	220.6822434	862.2356101	89.54212068	241.40552	463.21373	81.5411795
